<svg xmlns="http://www.w3.org/2000/svg" viewBox="150 125 925 750"><defs><style>.cls-1{fill:#e4eae9;}.cls-2{fill:#c7d8d7;}.cls-12,.cls-13,.cls-14,.cls-15,.cls-18,.cls-22,.cls-24,.cls-3,.cls-30,.cls-33,.cls-35,.cls-38,.cls-42,.cls-44{fill:none;}.cls-15,.cls-3,.cls-44{stroke:#9dc4c0;}.cls-12,.cls-13,.cls-15,.cls-18,.cls-22,.cls-24,.cls-3,.cls-30,.cls-33,.cls-35,.cls-38,.cls-44{stroke-linecap:round;}.cls-15,.cls-18,.cls-24,.cls-3,.cls-33,.cls-44{stroke-linejoin:round;}.cls-3{stroke-width:5px;}.cls-17,.cls-4,.cls-43{fill:#fff;}.cls-5{fill:#9dc4c0;}.cls-6{fill:#356a69;}.cls-7{fill:#275654;}.cls-8{fill:#ededed;}.cls-9{fill:#192d2c;}.cls-10{fill:#944618;}.cls-11{fill:#722a18;}.cls-12{stroke:#722a18;}.cls-12,.cls-13,.cls-14,.cls-22,.cls-30,.cls-35,.cls-38{stroke-miterlimit:10;}.cls-13,.cls-38{stroke:#192d2c;}.cls-14{stroke:#0e3e58;stroke-width:3px;}.cls-16{fill:#daa520;}.cls-17{opacity:0.25;}.cls-18,.cls-24{stroke:#fff;}.cls-18,.cls-42,.cls-43,.cls-44{stroke-width:2px;}.cls-19{fill:#101c1b;}.cls-20{fill:#ffc3ae;}.cls-21{fill:#f47f71;}.cls-22{stroke:#f47f71;}.cls-23{fill:#4e8382;}.cls-24{stroke-width:2.38px;}.cls-25{fill:#2f5653;}.cls-26{fill:#e2a56c;}.cls-27{fill:#bb4f22;}.cls-28{fill:#cc8d00;}.cls-29{fill:#e26d45;}.cls-30{stroke:#e26d45;}.cls-31{fill:#2c4c4a;}.cls-32{fill:#744002;}.cls-33{stroke:#1d0002;}.cls-34{fill:#1d0002;}.cls-35{stroke:#111e1d;}.cls-36{fill:#111e1d;}.cls-37{fill:#c98712;}.cls-38{stroke-width:0.75px;}.cls-39{fill:#60ada9;}.cls-40{fill:gray;}.cls-41{fill:#333;}.cls-42,.cls-43{stroke:#000;}.cls-44{stroke-dasharray:9;}</style></defs><g id="Layer_2" data-name="Layer 2"><path class="cls-1" d="M855.9,254.93V685.39a19.83,19.83,0,0,1-19.83,19.84H360a19.84,19.84,0,0,1-19.84-19.84V254.93A19.84,19.84,0,0,1,360,235.09H836.07A19.83,19.83,0,0,1,855.9,254.93Z"/><rect class="cls-2" x="553.02" y="443.65" width="252.6" height="232.57" rx="6.23"/><line class="cls-3" x1="579.76" y1="489.47" x2="609.57" y2="489.47"/><line class="cls-3" x1="579.76" y1="502.94" x2="598.04" y2="502.94"/><path class="cls-3" d="M579.76,606.31c15.1,0,27.88,18.4,49.17,18.4s27.48-33,57.29-33,23.22-40.4,46.06-40.4S750.47,501,779.12,501"/><rect class="cls-2" x="416.02" y="443.65" width="92.73" height="232.57" rx="2.44"/><path class="cls-2" d="M855.9,254.93v10.84H340.18V254.93A19.84,19.84,0,0,1,360,235.09H836.07A19.83,19.83,0,0,1,855.9,254.93Z"/><circle class="cls-4" cx="367.35" cy="250.43" r="2.95"/><circle class="cls-4" cx="390.38" cy="250.43" r="2.95"/><circle class="cls-4" cx="413.42" cy="250.43" r="2.95"/><rect class="cls-5" x="594.19" y="364.35" width="165.57" height="6.19" rx="3.1"/><rect class="cls-2" x="553.02" y="321.73" width="252.03" height="97.64" rx="4.66"/><rect class="cls-5" x="596.24" y="344.96" width="165.57" height="6.19" rx="3.1"/><rect class="cls-5" x="596.24" y="367.45" width="165.57" height="6.19" rx="3.1"/><rect class="cls-5" x="596.24" y="389.93" width="104.8" height="6.19" rx="3.1"/><path class="cls-9" d="M940.31,689.93s-22.65,41-17.62,47.61,35.12-17.89,40.07-23.8,2.24-10.45-2.46-22.26"/><path class="cls-9" d="M889,646s-26.2,38.86-21.77,45.86,36.57-14.7,42-20.15,3.16-10.21-.48-22.39"/><path class="cls-6" d="M1007.85,525.09c0,.16,0,.34,0,.52-.64,6.82-8.76,26.1-16.77,45.44-5.38,13-10.7,26-13.69,35.26-1.61,5-5.15,15.3-5.81,17.34-2.43,40.18-7.55,58.07-8.45,74.77-.15,2.74-26.51.09-27.54-2.23s.07-71.51,2.12-82.61S957,535.93,957,535.93s-18.18,11.9-28.82,19.42c-2.51,1.79-4.61,3.33-5.94,4.4l0,0a7.87,7.87,0,0,0-1.52,1.45c-.58,1.12.63,15.39-1.78,34.47-2.57,20.42-3.35,11.12-7.09,56.89-.13,1.56-28.9,2.06-29.65,0S881.1,555,884.2,547c2.82-7.28,50.09-56.1,58.61-64.86l1.31-1.35,37.07-5.44,21.46,7.13S1008.33,512.45,1007.85,525.09Z"/><path class="cls-7" d="M1007.85,525.09c0,.16,0,.34,0,.52-.64,6.82-8.76,26.1-16.77,45.44,1.06-5.4,2-10.28,2.57-14.09,3.1-19.35-2.52-48.58-17.23-57.87-12.28-7.76-27.54-7.55-33.58-16.92l1.31-1.35,37.07-5.44,21.46,7.13S1008.33,512.45,1007.85,525.09Z"/><path class="cls-4" d="M993.15,490.19c-16.54,2.32-45.21-1-50.19-11.14l10.28-70,10.27-13.92,2.12-2.88,15.86-.71,3,4.54,3.74,5.71s11.81,49.13,13.14,50.68S1009.69,487.87,993.15,490.19Z"/><path class="cls-8" d="M984.46,396.06a12.33,12.33,0,0,1-7.87,4.65c-7.9,1.62-11.78-1.36-13.08-5.6l2.12-2.88,15.86-.71Z"/><path class="cls-2" d="M958.12,427.37c-.08,5.83.06,11.56-.07,17.05-.14,6.3-.64,12.27-2.27,17.7a65.56,65.56,0,0,1-3,7.92c-8.49,18.87-27.71,41.84-47.81,48.6,13.74-16.64,31.26-32.52,36.24-42,1.37-2.61,2.12-6.72,2.48-11.31a152.45,152.45,0,0,0-.22-21.6c-.26-3.63-.52-6-.52-6s-3.61,5.83-7.36,11.8c-3.43,5.45-7,11-8,12.41-2.13,2.9-19.74-16.06-19.74-16.06S929,405.8,939.81,399c7.13-4.46,16.06-6,21.32-6.52,2.74-.28,4.5-.28,4.5-.28C959.4,403.5,958.29,415.62,958.12,427.37Z"/><path class="cls-5" d="M958.05,444.42c-.14,6.3-.64,12.27-2.27,17.7a65.56,65.56,0,0,1-3,7.92c-2.88-1.51-6.65-3.47-9.09-4.71a152.45,152.45,0,0,0-.22-21.6Z"/><path class="cls-5" d="M943,437.72s-3.61,5.83-7.36,11.8c1.57-16.91,7.36-33.59,7.36-33.59S942.52,427.54,943,437.72Z"/><path class="cls-2" d="M1043.3,549.61c-5.81,4.9-16,21.16-25.44,15.48S993.62,514,988.72,491.16c-.72-3.34-1.41-7.83-2.06-13.06-1.43-11.39-2.68-26.3-3.62-40.53-.18-2.69-.35-5.36-.51-8-1.22-20.56-1.71-37.86-1-38.08l.1,0c2.3-.38,30.06,1.43,36.27,13.73,1.78,3.53,2,10.59,1.79,19.1-.23,8.15-.9,17.63-1.1,26.62a112.07,112.07,0,0,0,.93,19.68c0,.18,0,.35.08.53,3.48,19.87,11.61,29.29,23.22,40.25s19.74,22.2,21,25.55S1049.1,544.71,1043.3,549.61Z"/><path class="cls-5" d="M1019.65,424.33c-.23,8.15-.9,17.63-1.1,26.62a100.57,100.57,0,0,0-8.93,19.43c-3.51,9.91-18,9.41-23,7.72-1.43-11.39-2.68-26.3-3.62-40.53a60.88,60.88,0,0,0,15.2-19.16Z"/><path class="cls-9" d="M949.55,356.64c-9.68-3.74-9.29-10.84-6.9-13.42a6.09,6.09,0,0,1,5.67-1.74s-4.71-4.45-1.55-8.39,10.52.65,15.84,3.62,15.71-.71,22.68,6.45,4.84,13.22,4.84,13.22,4.9,2.07,4.13,6.78-6.92,17.67-13.56,18.9-10.34-.63-10.34-.63"/><path class="cls-10" d="M975.4,397.59c-4.91,1.45-8.28-.87-9-3.08-.18-.53-.44-1.34-.74-2.28-.92-3-2.17-7.15-2.17-7.15l14.68-9.34a23,23,0,0,0,.82,5.11c.89,3.87,2.21,8.68,2.54,10.63C981.85,393.61,980.31,396.14,975.4,397.59Z"/><path class="cls-11" d="M979,380.85a20.57,20.57,0,0,1-13.33,11.38c-.92-3-2.17-7.15-2.17-7.15l14.68-9.34A23,23,0,0,0,979,380.85Z"/><path class="cls-10" d="M949.23,348.06c5,10.9,28.71,10.45,28.71,10.45s2.07,11.62,2.65,12.07,1.43-6.84,4-9.45,9.63-.2,8.42,6.09-8.42,5.28-9.34,2.95c0,0-4,18.44-21.49,18.44-11.17,0-13.79-11.86-13.79-17.08S949.23,348.06,949.23,348.06Z"/><path class="cls-12" d="M987.81,369c-2.58-1.67-.55-5.83,2-5.45"/><path class="cls-12" d="M961.89,363.79l-4.12,8a1.91,1.91,0,0,0,.9,2.61l2.74,1.29"/><ellipse cx="970.4" cy="369.15" rx="1.45" ry="1.7"/><ellipse cx="954.33" cy="369.15" rx="1.45" ry="1.7"/><path class="cls-13" d="M967.78,364.29a4.92,4.92,0,0,1,5.9.25"/><path class="cls-13" d="M951.65,364.29a4.93,4.93,0,0,1,5.91.25"/><path class="cls-4" d="M969.88,378.78a3.63,3.63,0,1,1-7.24.5"/><line class="cls-14" x1="920.68" y1="458.79" x2="938.04" y2="431.86"/><path class="cls-10" d="M943.54,446.35s-7.5-5-10.11-5.52-9.2,3.05-9.2,3.05L923.12,454a5.29,5.29,0,0,0,2.56,4c2.37,1.3,21.68,2.08,21.68,2.08"/><path class="cls-2" d="M1002.62,407.45,985.2,451.09s-42.48-7.64-43.36-7.06-4,16-4.16,17.51,47,13.94,56.23,13.84,26.52-52.45,28-58.64S1013.65,392.74,1002.62,407.45Z"/><path class="cls-15" d="M1007.85,507.79c8,10.27,21.19,6.51,21.19,6.51"/><path class="cls-5" d="M982.53,429.6c-1.22-20.56-1.71-37.86-1-38.08l.1,0c4,2.42,8.43,5.29,9,6.54C991,399,985.86,417.63,982.53,429.6Z"/><path class="cls-5" d="M965.63,392.23c-6.23,11.27-7.34,23.39-7.51,35.14-2.76-10.06-6.37-23.55-6.46-25.6s5.51-6.48,9.47-9.26C963.87,392.23,965.63,392.23,965.63,392.23Z"/><path class="cls-16" d="M940.2,478.73h-40a2.36,2.36,0,0,1-2-1.47L878,423.81a1,1,0,0,1,.92-1.47h40a2.37,2.37,0,0,1,2,1.47l20.19,53.45A1,1,0,0,1,940.2,478.73Z"/><path class="cls-9" d="M906.43,425.94H894.12a2.85,2.85,0,0,1-2.44-1.77l-1.38-3.66c-.37-1,.12-1.78,1.1-1.78h12.31a2.86,2.86,0,0,1,2.44,1.78l1.39,3.66A1.19,1.19,0,0,1,906.43,425.94Z"/><path class="cls-10" d="M883.1,455.09c-3-8.26,1.49-11.74,6.58-11.42s7.94,1,8.13,2.2-6.06,2.19-6.06,2.19,7.29.45,7.68,1.87-6.59,2.65-6.59,2.65,5.65-.39,6.6,1.61-4.14,2.64-4.14,2.64,5,0,4.64,1.94-6.51,3.16-10.32,1.48S884.22,458.23,883.1,455.09Z"/><path class="cls-7" d="M957,535.93s-18.18,11.9-28.82,19.42c4.72-7.22,12.69-18.78,20.17-26.64,8.35-8.77,9.16-13.14,9-14.9A41.06,41.06,0,0,1,957,535.93Z"/><rect class="cls-2" x="897.52" y="337.38" width="36.33" height="36.33" rx="3.33"/><rect class="cls-5" x="902.07" y="343.9" width="6.68" height="2.13" rx="1.06"/><rect class="cls-5" x="901.84" y="361.33" width="5.9" height="7.37" rx="0.7"/><rect class="cls-5" x="909.1" y="353.96" width="5.9" height="14.74" rx="0.7"/><rect class="cls-5" x="916.36" y="357.35" width="5.9" height="11.35" rx="0.7"/><rect class="cls-5" x="923.62" y="351.69" width="5.9" height="17.02" rx="0.7"/><rect class="cls-6" x="851.33" y="350.06" width="73.38" height="55.54" rx="5.18"/><rect class="cls-4" x="861.81" y="360.13" width="14.27" height="2.19" rx="1.1"/><rect class="cls-17" x="861.81" y="365.25" width="10.06" height="2.19" rx="1.1"/><polyline class="cls-18" points="861.81 386.89 868.95 382.66 874.88 387.9 885.23 376.67 896.36 383.99 907.66 372.03 917.07 384.42"/><path class="cls-9" d="M722.92,759.71S710.77,793.5,709.61,803s38.79-31.07,40.16-33.35-9.34-12-9.34-12"/><path class="cls-6" d="M780.14,662.45l-.85,17.84-33.74,8-23.94,7.4A95.78,95.78,0,0,0,727,715.19c7.14,18.91,16.6,44.06,16.6,44.42s-9,4.12-16.2,6.82c-4.68,1.75-8.61,3-8.89,2.66-.71-1-45.17-84-33.37-94.45,8.46-7.49,39-18.93,55.72-24.81,6.6-2.33,11-3.79,11-3.79Z"/><path class="cls-7" d="M743.56,759.61c0,.35-9,4.12-16.2,6.82-.71-14.69-1.13-32.85-.4-51.24C734.1,734.1,743.56,759.25,743.56,759.61Z"/><path class="cls-7" d="M780.14,662.45l-.85,17.84-33.74,8c-1.54-13-3.52-28.8-4.73-38.48,6.6-2.33,11-3.79,11-3.79Z"/><path class="cls-9" d="M782.13,801.74s-1.67,35.87,0,45.29,25.68-37.42,26.33-40-10.2-12.39-10.2-12.39"/><path class="cls-6" d="M789,699.72c-11.42,10.89-22,19.41-22,19.41s33.66,71.62,35.86,74.33-21.56,14.71-24,12.77S724.32,730,728.58,717.59c2.36-6.89,16-27.43,27.59-44.3,9.27-13.46,17.27-24.58,17.27-24.58l29.34-5.51s16.38,2,13.67,20.19C815,672.92,801.51,687.76,789,699.72Z"/><path class="cls-7" d="M816.45,663.39c-1.42,9.53-14.94,24.37-27.49,36.33l-32.79-26.43c9.27-13.46,17.27-24.58,17.27-24.58l29.34-5.51S819.16,645.2,816.45,663.39Z"/><path class="cls-4" d="M782.14,561.9s18.9-1.55,19.48-1.45,10.76,18.32,10.93,19.87-5.14,32.53-4.94,36.6-33,26.28-33,26.28-21.75-17.46-21.75-18.49"/><path class="cls-9" d="M789.63,563.8s-12.57,46.78-12.82,50.94,1.68,15.09,4.2,12.77,10.35-9.09,10.35-13.93,3.46-47.86,3.46-47.86l.3-1.92-2.61-1.59h-1.13"/><path class="cls-9" d="M785.94,562.37c-5.61,16.66-12.54,53-12.07,53.23S735.43,598,735.43,598s17.61-29.23,28.06-34.46,22.45-4.64,22.45-4.64"/><path class="cls-9" d="M802.54,681c-1.55-1.52-4.14-13-6.21-26.18-2.14-13.6-3.73-28.93-3-36.74a20.82,20.82,0,0,1,.35-2.51c2.68-12.21,10.49-57.86,10.49-57.86s27.09,8.13,33.55,22.8l-7.06,27.12-4.24,16.27c-.39,2.82,2.8,12.26,6.24,21.82s7,19,7.7,22.5C841.69,675.22,805.88,684.32,802.54,681Z"/><path class="cls-19" d="M832.63,645.75l-36.3,9.1c-2.14-13.6-3.73-28.93-3-36.74,8.2-5.88,18.71-16.17,23.45-32.33l13.88,21.88-4.24,16.27C826,626.75,829.19,636.19,832.63,645.75Z"/><path class="cls-2" d="M801.3,553.51c3,.55,4.67,4.74,4.83,6.26s-3.38,7.71-5.4,9.13-3.47.74-3.89,0a68.81,68.81,0,0,0-4.24-6.36c-.46-.29-6.88,3.81-8.11,4.39s-2.13-4.9-1.19-8.1,3.31-5,8.09-6.32"/><path class="cls-9" d="M773.23,522c-6.39-4-7-15.18-4.39-20,.84-1.55,3.36,3.67,9.94,3.93s17.68-1.35,24.71,1.87S807.61,519,807.61,519s4.4.9,4.91,7-6.71,12.45-8.84,16.06-8.83,8.25-14.35,3.38"/><path class="cls-20" d="M796.15,562c-5,1.24-8.23-1.23-8.88-3.47-.16-.54-.39-1.36-.65-2.31-.79-3-1.86-7.23-1.86-7.23l15.07-8.7a23.4,23.4,0,0,0,.6,5.14c.72,3.9,1.84,8.76,2.08,10.73C802.77,558.34,801.12,560.8,796.15,562Z"/><path class="cls-21" d="M800.43,545.47a20.56,20.56,0,0,1-13.81,10.79c-.79-3-1.86-7.23-1.86-7.23l15.07-8.7A23.4,23.4,0,0,0,800.43,545.47Z"/><path class="cls-20" d="M771.76,515.83c7.64,8.18,27.58,7.26,27.58,7.26s2.6,11.71,3.16,12.18.39-6.2,2.83-8.93,9.61-.62,8.69,5.72-8.18,5.64-9.2,3.36c0,0-5.5,17.65-21.48,17.08-10.23-.37-13.27-12.44-13-17.66S771.76,515.83,771.76,515.83Z"/><path class="cls-22" d="M808.91,534c-2.66-1.56-.81-5.81,1.72-5.53"/><path class="cls-22" d="M784.19,530.94l-3.89,6.85a1.67,1.67,0,0,0,.68,2.31l2.34,1.22"/><ellipse cx="791.74" cy="534.03" rx="1.38" ry="1.18" transform="translate(224.15 1302.07) rotate(-87.53)"/><ellipse cx="775.98" cy="533.4" rx="1.38" ry="1.18" transform="translate(209.69 1285.72) rotate(-87.53)"/><path class="cls-13" d="M790,528.44a4.9,4.9,0,0,1,5.88.51"/><path class="cls-13" d="M773.87,527.74a4.89,4.89,0,0,1,5.88.52"/><path class="cls-22" d="M786.76,545.11s3.07,1.64,6.16-1.79"/><rect class="cls-23" x="740.47" y="573.35" width="72.68" height="111.43" rx="3.73" transform="translate(1764.4 474.75) rotate(132.12)"/><rect class="cls-4" x="759.89" y="588.54" width="20.32" height="2.61" rx="1.3" transform="translate(594.45 -364.13) rotate(42.12)"/><rect class="cls-4" x="755.68" y="591.74" width="12.73" height="2.61" rx="1.3" transform="translate(594.53 -357.93) rotate(42.12)"/><path class="cls-24" d="M740.56,607.31c5.29,4.78-1.5,12.29,6.57,19.59s20.87-3,26.49,2-1.41,8.65,10.87,19.76S799,645,808.63,653.77"/><path class="cls-20" d="M764.17,643.29s-11.13-4.07-12.87-2.91,4.25,4,3.67,4.36-7.72,3.4-11.84,2.86S750,660.42,756,661.09s11.37-5.55,14-7.32"/><path class="cls-9" d="M817.49,582.9s-11,42.32-11,43.87-44.64,14.58-44.26,15,2.84,15.61,4.26,16c.66.18,11.15-5,23.09-6.74,17-2.45,28.22-5.77,31-6.94,5.16-2.19,17.67-48.13,18.58-57.55S823.3,564.45,817.49,582.9Z"/><path class="cls-20" d="M717.42,608.35c1.9,3,7.66,9.58,8.88,8.44s-2-6.63-2-6.63,3.13,3.94,5.41,3-3-6.8-3-6.8,5.42,4.52,6.73,3.62-3.08-7.46-3.08-7.46,3.78,4.38,5.42,3.51-2.31-7-5.87-9.76S717.41,601.52,717.42,608.35Z"/><rect class="cls-9" x="301.42" y="471.48" width="101.8" height="63.25" rx="4.97"/><rect class="cls-25" x="314.68" y="497.09" width="9.58" height="26.9" rx="0.97"/><rect class="cls-25" x="336.49" y="505.51" width="9.58" height="18.48" rx="0.97"/><rect class="cls-25" x="358.29" y="497.09" width="9.58" height="26.9" rx="0.97"/><rect class="cls-25" x="380.1" y="488.41" width="9.58" height="35.58" rx="0.97"/><rect class="cls-4" x="314.68" y="481.83" width="15.06" height="3.23" rx="1.61"/><path class="cls-26" d="M395.16,537.12s-5.42-14.13-6.9-15.74-16.06-2.64-16.58-1.22,6.45,3.29,6.45,3.29-8.39,1.29-8.52,2.71,8.33,1.87,8.33,1.87-8.71.9-8.65,2.45,6.78,2.06,6.78,2.06-5.87,1.36-5.94,3,8.65,2.39,8.65,2.39,5.74,8.64,12.19,9.42"/><path class="cls-9" d="M469.74,801.7s-12.9,44.13-10.45,49.55,25.16-16.9,32.26-26.71,9.81-12.51,9.16-15.74S489,794.87,489,794.87"/><path class="cls-9" d="M384.45,770.13s-25.36,38.35-24.62,44.25,29-8.72,38.71-16,13.06-9.06,13.4-12.33-7.1-16.78-7.1-16.78"/><path class="cls-23" d="M503.47,670.08a108.92,108.92,0,0,1-8.44,16.4c-11.87,18.58-18.32,28.13-18.32,28.13s7,19,7.84,33.34c1.81,32.19,7.74,45.16,7.58,46.92-.27,2.84-21.95,11.61-26.17,10.57s-28.83-83-27.82-92.76S457,662.78,457,662.78s-10.38,6.38-21.65,13.44c-13.32,8.32-27.89,17.56-28,18.26-.1.47.32,11.7.45,24.2.23,21.67-2.71,27.87-.45,52.18.35,3.75-28.13,4-28.39,1.51s-10.18-81.79-6.19-95.44S446.89,616,446.89,616l8.52-4.82,16.14-9.12,41.74,9C515.84,629.43,511,652.06,503.47,670.08Z"/><path class="cls-27" d="M483,472c-16.64-.65-11.61,21.2-12.64,31.7s-18.32,14.75-16.39,31,35.1,40.9,68.39,24.25,25.75-28.77,16.17-43.22,3.44-36.39-13.72-46.32S486.9,462.87,483,472Z"/><path class="cls-4" d="M457.59,604.89C475.81,619.7,505,619.12,505,619.12s13.57-64.64,13.21-65.8S513.29,532,513.29,532l-18-2.31-5.47-.92L466,551"/><path class="cls-6" d="M493.24,527.05s-22.59-.29-31.11,4.92-26.8,28.19-26.8,28.19S420,551.76,408.9,544.1c-6.83-4.74-11.23-10.17-11.67-10.27-1.16-.25-14.2,14.46-14.2,15.36,0,.38,10.21,7.28,18.91,15.34,12,11.12,24.06,24.45,29.22,26,8.91,2.58,23.1-13.8,23.1-13.8s-3.76,19.22-7.37,23.67-19.08,16.26-18.11,18.19,3.42,7.94,6.55,8.71,21.12-16.45,32.35-32.32S483.76,537.56,493.24,527.05Z"/><path class="cls-7" d="M455.74,575.19c2.13-4.26.26-14.52,3.13-18.78s10.81-9.93,10.81-9.93-8.77,5-15.94,9.87-6.38,11-9.48,18.26"/><path class="cls-6" d="M545.76,644.87c.77,2.51-32.46,21-36.33,16.9-2.29-2.41-8.15-25.56-10.74-41.94-.27-1.69-.52-3.38-.75-5-1.34-9.46-2.09-18.21-1.62-23.2.41-4.3,1.05-9.76,2-15.93.09-.61.18-1.22.28-1.84,2.17-14.11,5.7-31.48,10.85-46.77,20.27,6.23,27.94,11,29.07,12.75.59.91-2.92,11.51-6.33,23.2-.36,1.26-.71,2.53-1,3.8a208.46,208.46,0,0,0-4.81,24.94c-.73,5.94-.72,13.36,1.87,25.26a27.14,27.14,0,0,0,1.7,5.06C534.54,632.72,545.42,643.78,545.76,644.87Z"/><path class="cls-7" d="M528.19,617a27.14,27.14,0,0,0,1.7,5.06c-10.69-2.6-25.13-5.8-31.95-7.27-1.34-9.46-2.09-18.21-1.62-23.2.41-4.3,1.05-9.76,2-15.93,6.46-3.67,15.7-10.27,20.36-19.8l12.48,10.94a208.46,208.46,0,0,0-4.81,24.94C525.59,597.68,525.6,605.1,528.19,617Z"/><path class="cls-16" d="M481.68,621.09H440a1.65,1.65,0,0,1-1.62-1.54L437.75,608l-1.21-21.07-1.33-23a1.43,1.43,0,0,1,1.44-1.54h41.64c.84,0,1.57.69.28,2.53l3.21,55.66C483.17,620.4,482.52,621.09,481.68,621.09Z"/><path class="cls-28" d="M463.78,591.75l-4.36,13.6s-13.59,2.8-21.67,2.65l-1.21-21.07c6.33.81,7.15-4.16,9.17-4.1C448.1,582.9,463.78,591.75,463.78,591.75Z"/><path class="cls-9" d="M464.22,566H451.4a2,2,0,0,1-1.95-1.84l-.22-3.82a1.72,1.72,0,0,1,1.74-1.84h12.82a2,2,0,0,1,1.95,1.84l.22,3.82A1.72,1.72,0,0,1,464.22,566Z"/><path class="cls-2" d="M507.55,521.47c2.52.78,5.23,5.14,5.71,7.75s-5.07,9-7.28,9.15-6.07-6.59-6.87-6.4-8.79,2.43-9.22.83.37-6.65,3.66-9.25S506,521,506,521"/><path class="cls-26" d="M502.29,531.92c-5.1.5-8-2.4-8.3-4.72-.08-.55-.18-1.39-.3-2.37-.35-3.09-.8-7.43-.8-7.43L509.06,511a22.72,22.72,0,0,0-.15,5.17c.15,4,.55,8.94.51,10.92C509.37,529.21,507.38,531.41,502.29,531.92Z"/><path class="cls-29" d="M508.91,516.13a20.58,20.58,0,0,1-15.22,8.7c-.35-3.09-.8-7.43-.8-7.43L509.06,511A22.72,22.72,0,0,0,508.91,516.13Z"/><path class="cls-26" d="M483,478.58c9.62,18,26.2,16.85,26.2,16.85s1.6,8.81,2.15,9.31.61-6.19,3.15-8.82,9.63-.28,8.47,6-8.37,5.35-9.31,3c0,0-6.14,17.44-22.08,16.29-10.21-.74-12.81-12.91-12.4-18.12S483,478.58,483,478.58Z"/><path class="cls-30" d="M517.82,503.73c-2.59-1.66-.59-5.84,1.92-5.47"/><path class="cls-30" d="M493.24,499.74l-4.14,6.71a1.68,1.68,0,0,0,.6,2.33l2.29,1.31"/><ellipse cx="500.67" cy="503.11" rx="1.38" ry="1.18" transform="translate(-40.47 962.4) rotate(-85.46)"/><ellipse cx="484.94" cy="501.91" rx="1.38" ry="1.18" transform="translate(-53.77 945.62) rotate(-85.46)"/><path class="cls-13" d="M499.11,497.45a4.91,4.91,0,0,1,5.86.73"/><path class="cls-13" d="M483,496.18a4.92,4.92,0,0,1,5.87.72"/><path class="cls-30" d="M495.3,514s3,1.75,6.21-1.57"/><path class="cls-26" d="M455.49,590.77s-7.36-7.65-9.78-7.94,1.36,7.36,1.36,7.36-8-.58-10.94-2.42.08,10.9,1.45,14.89,18.87,1.37,21.29,1.66"/><path class="cls-6" d="M522.71,548.29l-22.93,42.77s-45-2.32-45.58-1.94-1.75,16.46-1.75,16.46,55.75,9.09,60.39,8.9,28-46.5,31.43-53.48C550.39,548.67,536.65,526,522.71,548.29Z"/><path class="cls-6" d="M467.16,635.12,457,662.78s-10.38,6.38-21.65,13.44c8.7-10.41,17.2-20.85,19.71-24.84A137.18,137.18,0,0,1,467.16,635.12Z"/><path class="cls-9" d="M189.84,649.27s-2.38,39.11-5.91,42.75-15.3-20.81-18.17-30.72S161.51,648.44,163,646s13.44-7.79,13.44-7.79"/><path class="cls-9" d="M266.81,661.68s14,36.61,12.25,41.38-22.52-12.64-29.22-20.49-9.18-10-8.85-12.75,9-12.64,9-12.64"/><path class="cls-31" d="M246.14,591.41c-2.91,12.72-54.58,63.1-55.36,63.3S175.09,642,173.17,638.64c-1-1.68,9.49-11.63,19.73-25.06,9.39-12.31,18.45-28.21,21.3-29.33,0,0-22.26-41.22-22.64-75.48l42.58,5.42L239,541.61l.63,3.55s2.61,14.94,4.54,27.91C245.47,581.75,247.3,586.32,246.14,591.41Z"/><path class="cls-9" d="M244.18,573.07c-8.68-8.58-25.71-16.8-27.64-35.25L239,541.61l.63,3.55S242.25,560.1,244.18,573.07Z"/><path class="cls-31" d="M211.17,511.79c2.06,34.46,14.11,36.79,24.09,43.37s32.68,24.64,32.68,24.64-6.71,30.75-10.95,51.91c-3.6,18-10.56,23.31-10,25.25,1.29,4.13,23.48,7.39,23.48,7.39s33.6-77.1,32.26-91.14-48.52-58.33-48.52-58.33"/><path class="cls-16" d="M237.2,477.29l32.06,6.15a2.53,2.53,0,0,0,2.6-1.34l19.83-40.21a1.33,1.33,0,0,0-.95-2l-32.06-6.15a2.54,2.54,0,0,0-2.6,1.34l-19.83,40.21A1.33,1.33,0,0,0,237.2,477.29Z"/><path class="cls-4" d="M240.63,474.92l27.92,5.36a2.23,2.23,0,0,0,2.27-1.17L288.14,444a1.16,1.16,0,0,0-.83-1.76l-27.92-5.36a2.23,2.23,0,0,0-2.27,1.17L239.8,473.16A1.16,1.16,0,0,0,240.63,474.92Z"/><path class="cls-32" d="M272.31,497.09s2.64-20,3.2-22.78,4.69-7.54,4.56-9.48-3.48-6.7-2.45-9.67,5.55,5.55,6.71,8.13,0,9.8,0,9.8,6.71,26.07,1.8,35-15.22,6.84-18.19-6.45"/><path class="cls-9" d="M220.23,417.67c-9.18-4.07-14.84-12.78-11-22.38-3-12.47,14.78-21,25.46-14.77,7.85-4,20.85-6.59,23.23,8s-8.79,13.92-8.79,13.92l-8.91,15.14-17.36,5.07"/><path class="cls-32" d="M256.46,413.08c.08,1.1-3.72,1.41-3.72,1.41s-.87,8.89-4.52,10.06-9.75-1.24-10.07-1.36h0l-.53,5.93-.37,4.22-19.32-4.66,2.31-11s.91.56,7.57.86,10.51-6.77,10.51-6.77c-7.69-.86-5.24-11.15-.14-11.54s3.47,8.47,4.56,9,2.86-8.69,2.86-8.69,8.29-3,9-6.44c.88,3.28-.64,10.91-.63,11.95S256.39,412,256.46,413.08Z"/><path class="cls-33" d="M244.66,416.19a3.14,3.14,0,0,0,4,1.92"/><path class="cls-34" d="M238.14,423.18l-.53,5.93a11.23,11.23,0,0,1-5.24-8.7Z"/><path class="cls-5" d="M214.53,429.61a13.45,13.45,0,0,1,2.37-5.43c.33-.2,22.41,3.48,22.94,4.35s1.31,6.53,1.31,6.53l-24.34.17"/><path class="cls-33" d="M236.36,404.69c2.27-1.61,4.08,1.92,2.27,4"/><ellipse cx="250.59" cy="407.84" rx="1.13" ry="1.32" transform="translate(-5.15 3.21) rotate(-0.73)"/><path class="cls-35" d="M249.2,404.34a2.35,2.35,0,0,1,3.31-.25"/><circle class="cls-36" cx="208.92" cy="398.91" r="12.65"/><path class="cls-2" d="M280.59,490.51s-17.23,9.94-17.81,9.94-10-19.66-10.26-20.28h0s.79,23.64,1.66,26.9,4.86,7.71,4.12,10.81c-.65,2.77-4,6.7-17,6-1.52-.08-3.16-.23-5-.45-8.8-1.07-22.28.85-31.84-1.14-9.05-1.89-14.43-7.63-14.71-10.51-.56-5.72,1.6-34.21,1.74-36v-.09s-2.33,7.94-9.29,9.49a8.52,8.52,0,0,1-8.09-3c-3.65-4.08-5.36-12-.62-23.51,7.74-18.77,20.93-27.71,27.48-30.77,8.9-4.16,25.93,4.36,25.93,4.36s26-1.55,34.26,9.38C267.9,450.48,280.59,490.51,280.59,490.51Z"/><path class="cls-5" d="M258.29,517.87c-.65,2.77-4,6.7-17,6,8.21-18.56,6.75-57.88,6.75-57.88l4.44,14.16s.79,23.64,1.66,26.9S259,514.77,258.29,517.87Z"/><path class="cls-5" d="M193.1,450.9l-1.54,24.77s-2.33,7.94-9.29,9.49a8.52,8.52,0,0,1-8.09-3C188.62,476.25,193.1,450.9,193.1,450.9Z"/><rect class="cls-5" x="260.96" y="490.86" width="22.71" height="10.84" rx="2.39" transform="translate(-174.96 149.3) rotate(-23.44)"/><path class="cls-7" d="M799.35,281.88l-48.27-9.56,2.2,24.78s32.51,15.61,35.61,15.49,46.19,1.14,51.23-1.3,21.54-13.16,21.54-13.16L855.86,286l-12.34-4.72"/><path class="cls-9" d="M831.61,330.52s17.11,2.64,18.23,4.33,3.61,48.48-1.43,48.77-24.21-41.34-24.21-41.34"/><path class="cls-6" d="M826,348.85a2.15,2.15,0,0,1-3.17.61c-3.48-2.68-10.5-6.54-19.11-11-16.43-8.49-38.68-19.11-53.24-27.7a45.5,45.5,0,0,1-7.76-5.73c-15.77-14.62-12.86-35.15,9.9-32.48,10.17,1.19,25.25,9.86,39.87,20,16.75,11.63,32.91,25.18,40.44,31.67,2.69,2.32,4.28,3.74,4.41,3.85C838,328.64,829.41,343.16,826,348.85Z"/><path class="cls-7" d="M832.93,324.23c-7.89,5-19.32,10.19-29.21,14.23-16.43-8.49-38.68-19.11-53.24-27.7a45.5,45.5,0,0,1-7.76-5.73c10.14-2.28,31.12-7.15,49.77-12.47C809.24,304.19,825.4,317.74,832.93,324.23Z"/><path class="cls-20" d="M793.54,240.46l-6.46,15.61-30.77,7.35v7s32.32,11.17,39.68,8.65,18-39.29,18.77-39.87"/><path class="cls-16" d="M879.6,255.49l-13.93,4.58-.58,4c-1.12,7.32-3.48,22.28-4.45,23.26-.75.75-21.52-.78-38.67-2.45h0c-12.18-1.18-22.54-2.43-22.59-3-.13-1.29,7.22-36.91,7.22-36.91s-2.46-.78-5.23-1.7a75.41,75.41,0,0,1-7.8-2.81c-.13-.39,8.87-26,15.7-31s30.56-9.05,30.56-9.05l8.62-.83c5.25.52,23.7,4.13,31.18,13.55S879.6,255.49,879.6,255.49Z"/><path class="cls-37" d="M865.09,264c-1.12,7.32-3.48,22.28-4.45,23.26-.75.75-21.52-.78-38.67-2.45h0c.48-.22,16-7.2,26.47-22.45,10.61-15.48,16.09-33.68,16.09-33.68L862,251Z"/><path class="cls-9" d="M820.88,174.71c-6.83-.12-8.14-3.74-4.63-7.54-6.33-.52-6.47-9.36,1.37-10.33-5-2-2.28-8.51,2.37-8.9s9.42,3.16,16.38,2.84,12.07-2.26,16.07,3.55,2.32,9.87,2.32,9.87,4.84.32,4.78,6.9-5.42,9.87-8.07,14.84-9,8.42-13.87,4.24"/><path class="cls-20" d="M844.14,208.09c-5,1.23-8.24-1.23-8.89-3.47-.16-.54-.39-1.36-.64-2.31-.8-3-1.87-7.24-1.87-7.24l15.07-8.7a23.47,23.47,0,0,0,.6,5.15c.73,3.9,1.84,8.76,2.08,10.72C850.75,204.39,849.1,206.85,844.14,208.09Z"/><path class="cls-21" d="M848.41,191.52a20.57,20.57,0,0,1-13.8,10.79c-.8-3-1.87-7.24-1.87-7.24l15.07-8.7A23.47,23.47,0,0,0,848.41,191.52Z"/><path class="cls-20" d="M819.74,161.88C828.44,175.68,845,173,845,173s1.31,8.67,1.87,9.15,1.91-6.27,4.35-9,9.62-.62,8.69,5.72-8.18,5.64-9.2,3.36c0,0-3.43,16.86-19.41,16.29-10.22-.37-11.94-12.44-11.72-17.66S819.74,161.88,819.74,161.88Z"/><path class="cls-4" d="M837.27,190.18a2.74,2.74,0,0,1-5.44.64Z"/><path class="cls-22" d="M854.82,180.87c-2.65-1.56-.81-5.81,1.72-5.54"/><path class="cls-22" d="M832.17,177l-3.89,6.85a1.68,1.68,0,0,0,.69,2.31l2.33,1.22"/><ellipse cx="838.17" cy="181.1" rx="1.38" ry="1.18" transform="translate(621.19 1010.7) rotate(-87.53)"/><ellipse cx="823.82" cy="180.87" rx="1.38" ry="1.18" transform="translate(607.69 996.15) rotate(-87.53)"/><path class="cls-13" d="M837,174.49a4.92,4.92,0,0,1,5.89.51"/><path class="cls-13" d="M820.88,173.79a4.92,4.92,0,0,1,5.89.51"/><circle class="cls-38" cx="822.79" cy="181.1" r="5.28"/><circle class="cls-38" cx="838.57" cy="181.1" r="5.28"/><line class="cls-13" x1="827.93" y1="179.91" x2="833.43" y2="179.91"/><line class="cls-13" x1="843.84" y1="179.52" x2="847.28" y2="179.52"/><path class="cls-20" d="M862,251l-2,13.19-33.24-2.9s-5.72-6.78-10.07-7.46-13.36,6.49-13.36,8.33,7-1.55,7-1.55-4.06,4.84-3,6,5.81-2.52,5.81-2.52-3,3.68-2.33,4.74,7.17-2.13,7.17-2.13-4.94,4.26-3.2,5.13,5.71-2.22,5.71-2.22,35.61,14.32,45.68,14.51,13.45-28.64,13.45-28.64S866.82,254.2,862,251Z"/><path class="cls-37" d="M810.83,225.1,806.57,245s-2.46-.78-5.23-1.7C805.76,236.38,810.83,225.1,810.83,225.1Z"/><path class="cls-5" d="M717.92,220.19h73.16a2.21,2.21,0,0,1,2.11,1.84l7.38,51.49a1.55,1.55,0,0,1-1.58,1.83H725.83a2.2,2.2,0,0,1-2.1-1.83L716.35,222A1.56,1.56,0,0,1,717.92,220.19Z"/><rect class="cls-5" x="782.75" y="270.45" width="55.82" height="4.91" rx="2.45"/><path class="cls-9" d="M761,314.88s-17-3.24-18.62-2-19.64,44.47-15,46.43,36.65-30.84,36.65-30.84"/><path class="cls-6" d="M760.68,336.62s-5.25-25.57-4.24-25.95c.45-.17,15.08-3.2,33.82-8.9,30.32-9.21,50.63-18.24,64.59-15,9.75,2.23,10.32,8.25,10.89,14,.92,9.32-4.8,19.44-21.66,22.7C816.79,328.72,768.07,332.23,760.68,336.62Z"/><rect class="cls-7" x="692.2" y="197.4" width="58.88" height="41.83" rx="3.87"/><rect class="cls-4" x="699.62" y="204.61" width="13.84" height="2.48" rx="1.24"/><rect class="cls-4" x="699.62" y="210.42" width="9.71" height="2.48" rx="1.24"/><path class="cls-18" d="M699.62,226.19s2,2.71,8.32,2.71,4.55-6.58,13.16-6.58,5.33-7.94,20.23-7.94"/><path class="cls-39" d="M323.12,343.21c-13.24.65-31.53-7.49-31-12.95s20.17-.71,18.94-1.72-23.67-13.8-22.61-20.83,21.92,8.82,21.92,8.82S293.91,296,298,291.73s20.19,22.38,20.19,22.38-6.81-17.35-2-18.29,11,21.72,11,21.72-.1-12.19,5.47-12.46,9.08,19.76,3.66,30"/><path class="cls-9" d="M362.68,357.3,338.9,374.88a2.27,2.27,0,0,1-3-.27L309,345.8a2.25,2.25,0,0,1,.3-3.35l31.06-22.95a2.25,2.25,0,0,1,3.29.68l19.64,34.19A2.25,2.25,0,0,1,362.68,357.3Z"/><path class="cls-39" d="M869.37,770.7c-5.5-12.06-4.68-32.07.59-33.58s8.1,18.49,8.59,17,4.08-27.09,11-28.71-.1,23.64-.1,23.64,13-22.91,18.48-20.65-13.34,27-13.34,27,13.61-12.73,16.27-8.57-16.12,18.24-16.12,18.24,11.29-4.61,13.6.48-15,15.73-26.55,14.48"/><path class="cls-9" d="M870.87,812.67l-25.11-15.61a2.25,2.25,0,0,1-.85-2.88l16.84-35.65a2.24,2.24,0,0,1,3.22-.95L897.77,778a2.25,2.25,0,0,1,.57,3.31l-24.51,30.88A2.27,2.27,0,0,1,870.87,812.67Z"/><g id="container"><g id="base_logo" data-name="base logo"><circle id="circle" class="cls-23" cx="458.87" cy="366.33" r="37"/><path id="toga" class="cls-40" d="M463.87,403.33a75.92,75.92,0,0,0,31.86-42.51.84.84,0,0,0-.22-.84c-9.25-9.14-9.88-5.09-30-10.87a.83.83,0,0,0-.92,1.25c8.32,12.06-8.26,30.28-.7,53"/><path id="shadow" class="cls-41" d="M463.87,403.33a76,76,0,0,0,32-43,38,38,0,0,1-32,43"/><path id="body" class="cls-4" d="M427.87,388.33c15.73-41.29,25.67-14.92,35-38.73a.82.82,0,0,1,1.4-.21c9.38,11.89-7.72,30.14-.72,53a.81.81,0,0,1-.67,1.06,38,38,0,0,1-35-15.13"/><g id="black_outlines" data-name="black outlines"><path id="shoulders" class="cls-42" d="M427.87,388.33c14.5-38.5,24.5-18,33.35-35,2.1-4,.95-5.12,6.65-3.47,18,4.47,20,2.27,28,10.47"/><circle id="circle-outline" class="cls-42" cx="458.87" cy="366.33" r="38"/><path id="toga_left" data-name="toga left" class="cls-42" d="M463.87,349.33c9.8,12.5-7.7,31,0,54"/><path id="toga_base" data-name="toga base" class="cls-42" d="M463.87,404a76,76,0,0,0,32-43.65"/><circle id="head" class="cls-43" cx="443.87" cy="335.33" r="17"/></g></g></g><path class="cls-44" d="M306.52,419.36c52.25-30.49,90.87-8.72,109.5-31"/><path class="cls-44" d="M455.16,413.7C429.61,474,444.71,496.42,425,527.62"/><path class="cls-44" d="M505,341.26c59-31.74,172.07-23.12,204.36-73.69"/><path class="cls-44" d="M508.74,373.71c138.42-11.55,237.92,99,353.07,70"/><path class="cls-44" d="M498.4,408.7c57.92,20.56,26.44,57.35,104.89,89.54s91.16,84.06,118.35,87.54"/></g></svg>