<svg xmlns="http://www.w3.org/2000/svg" viewBox="80 150 525 500"><defs><style>.cls-1{isolation:isolate;}.cls-2{fill:#192d2c;}.cls-3{fill:#2c4c4a;}.cls-18,.cls-28,.cls-4{fill:#fff;}.cls-5{fill:#3f88c5;}.cls-6{fill:#356a69;}.cls-7{fill:#c7d8d7;}.cls-8{fill:#2c68a8;}.cls-9{fill:#185c8b;}.cls-10{fill:#ffc3ae;}.cls-11{fill:#f47f71;}.cls-12,.cls-13,.cls-17,.cls-19,.cls-21,.cls-22,.cls-27{fill:none;}.cls-12{stroke:#f47f71;}.cls-12,.cls-13,.cls-17,.cls-19,.cls-21,.cls-22{stroke-linecap:round;}.cls-12,.cls-13{stroke-miterlimit:10;}.cls-13,.cls-19{stroke:#192d2c;}.cls-14{fill:#9dc4c0;}.cls-15{fill:#e4eae9;}.cls-16{fill:#275654;}.cls-17,.cls-22{stroke:#fff;}.cls-17,.cls-19,.cls-21,.cls-22{stroke-linejoin:round;}.cls-17{stroke-width:5px;}.cls-18{opacity:0.25;mix-blend-mode:overlay;}.cls-19{stroke-width:6.82px;}.cls-20{fill:#daa520;}.cls-21{stroke:#9dc4c0;stroke-width:2px;stroke-dasharray:9;}.cls-22{stroke-width:3px;}.cls-23{fill:#60ada9;}.cls-24{fill:#4e8382;}.cls-25{fill:gray;}.cls-26{fill:#333;}.cls-27,.cls-28{stroke:#000;stroke-width:1.21px;}</style></defs><g class="cls-1"><g id="Layer_2" data-name="Layer 2"><rect class="cls-2" x="304.75" y="336.3" width="133.94" height="256.74"/><rect class="cls-3" x="288.49" y="561.29" width="166.45" height="48.06" rx="4.65"/><circle class="cls-4" cx="325.65" cy="585.45" r="2.05"/><circle class="cls-5" cx="338.33" cy="585.45" r="2.05"/><rect class="cls-6" x="372.23" y="583.39" width="50.84" height="4.11" rx="2.05"/><rect class="cls-3" x="288.49" y="498.2" width="166.45" height="48.06" rx="4.65"/><circle class="cls-4" cx="325.65" cy="522.35" r="2.05"/><circle class="cls-5" cx="338.33" cy="522.35" r="2.05"/><rect class="cls-6" x="372.23" y="520.3" width="50.84" height="4.11" rx="2.05"/><rect class="cls-3" x="288.49" y="435.1" width="166.45" height="48.06" rx="4.65"/><circle class="cls-4" cx="325.65" cy="459.26" r="2.05"/><circle class="cls-5" cx="338.33" cy="459.26" r="2.05"/><rect class="cls-6" x="372.23" y="457.2" width="50.84" height="4.11" rx="2.05"/><rect class="cls-3" x="288.49" y="372" width="166.45" height="48.06" rx="4.65"/><circle class="cls-4" cx="325.65" cy="396.16" r="2.05"/><circle class="cls-5" cx="338.33" cy="396.16" r="2.05"/><rect class="cls-6" x="372.23" y="394.1" width="50.84" height="4.11" rx="2.05"/><rect class="cls-3" x="288.49" y="308.91" width="166.45" height="48.06" rx="4.65"/><circle class="cls-4" cx="325.65" cy="333.06" r="2.05"/><circle class="cls-5" cx="338.33" cy="333.06" r="2.05"/><rect class="cls-6" x="372.23" y="331.01" width="50.84" height="4.11" rx="2.05"/><polygon class="cls-7" points="572.58 409.69 569.85 585.45 543.85 585.45 539.83 540.2 538.75 528.07 534.15 461.72 514.36 585.45 488.74 585.45 497.27 406.01 572.58 409.69"/><path class="cls-2" d="M569.85,585.45l31.59,20.86a1.66,1.66,0,0,1-.91,3H543.89a1.66,1.66,0,0,1-1.65-1.78l1.61-22.12Z"/><path class="cls-2" d="M514.33,585.45,525,605.91a2.35,2.35,0,0,1-2.09,3.44h-33.8a2.35,2.35,0,0,1-2.35-2.52l1.56-21.38Z"/><path class="cls-5" d="M569.37,366.17s3.62,41.55,3.68,43.74-14.52,1.81-31.9,3-44.68-.9-44.55-2.71c0-.41.19-2.41.42-5.24.77-9.62,2.33-28.95,2.33-28.95l-2.81-2.9-3.2-3.3s-11.19-20.51-8-36.64,26.33-19.23,33.68-23.2l20.36,1.65s23.77,1,30.35,8.52S586,356.59,586,356.59Z"/><path class="cls-8" d="M566.69,370.17c-.51-10.94-6-33.87-6-33.87s11.81,19.54,13.75,22.16,8.9,11.71,8.9,11.71"/><path class="cls-8" d="M567.45,369.78l-3.69,13.58a338.29,338.29,0,0,1-31.45,16.42c-12.48,5.63-27.81,5.77-35.29,5.15.77-9.62,2.33-28.95,2.33-28.95l-2.81-2.9,16.54-12.58s-5.35-21.1-4.29-19.85S535.5,367,547.21,368.56A138.54,138.54,0,0,0,567.45,369.78Z"/><path class="cls-9" d="M524.57,305.33c-5.45.9-6.94,6.58-6.94,8.39s3.16,7.93,9.36,9.87,7.61-8,7.61-8,3.55,6.47,6.39,5.31,4.06-5.93,1.67-9.55-8.7-5.2-8.7-5.2"/><path class="cls-2" d="M513,279c-3.11,12.89,6.81,21.69,13.41,22s8-33,8-33l-13.26,1.54"/><path class="cls-10" d="M529.5,315.47c5.07.68,7.76-.87,8.17-3.17.1-.55.23-1.39.38-2.36.46-3.08,1.06-7.4,1.06-7.4l-15.93-7a23.08,23.08,0,0,1,0,5.17c-.29,4-.58,7.66-.6,9.64C522.51,312.52,524.42,314.79,529.5,315.47Z"/><path class="cls-11" d="M523.14,300.72a20.58,20.58,0,0,0,14.91,9.22c.46-3.08,1.06-7.4,1.06-7.4l-15.93-7A23.08,23.08,0,0,1,523.14,300.72Z"/><path class="cls-10" d="M551.84,269.51s1.24,13.79,1.46,19-2.81,17.29-13,17.65c-16,.58-21.48-17.07-21.48-17.07-1,2.28-8.27,3-9.2-3.36s6.24-8.44,8.69-5.72,3.42,7.4,4,6.92,2.42-10.1,2.42-10.1c0-3.64-.39-4.12-.39-4.12S543.6,273.28,551.84,269.51Z"/><path class="cls-12" d="M514.69,287.71c2.66-1.56.81-5.81-1.72-5.54"/><path class="cls-12" d="M539.41,284.62l3.89,6.85a1.67,1.67,0,0,1-.68,2.31L540.28,295"/><ellipse cx="531.71" cy="287.55" rx="1.32" ry="1.55" transform="translate(-11.88 23.14) rotate(-2.47)"/><ellipse cx="546.79" cy="287.55" rx="1.32" ry="1.55" transform="matrix(1, -0.04, 0.04, 1, -11.86, 23.79)"/><path class="cls-13" d="M533.62,282.12a4.9,4.9,0,0,0-5.88.51"/><path class="cls-13" d="M549.73,281.42a4.9,4.9,0,0,0-5.88.51"/><path class="cls-12" d="M536.84,298.79s-3.07,1.64-6.16-1.79"/><path class="cls-5" d="M513,279c14.84-9.18,39.11-6.77,39.11-6.77s.65-9.57-6.42-15.47-19.19-3.24-25.06.09C510.52,262.57,513,279,513,279Z"/><path class="cls-9" d="M524.57,274.25c6.39-7.53,32.51-10.15,38.42-2.11C547.7,274,524.57,274.25,524.57,274.25Z"/><path class="cls-10" d="M589.26,379.62c-.64,3.59-2.31,6.38-5.72,7.19-5.81,1.38-15.33.75-23.59-.25l-1.74-.22c-8-1-14.42-2.37-14.42-2.37l12.72-5.07,11.54-4.61L566.69,364l19.3-7.39S590.88,370.61,589.26,379.62Z"/><path class="cls-11" d="M589.26,379.62c-6.38.46-21.63,2.05-29.31,6.94l-1.74-.22-1.7-7.44,11.54-4.61L566.69,364l19.3-7.39S590.88,370.61,589.26,379.62Z"/><path class="cls-10" d="M579.28,373.13s6.45,3.36,5.55,4.39-16.26,1.29-16.26,1.29-47.1,25.68-55.87,23.35-19.36-32.38-19.36-32.38,3.16-1.61,7-3.5c5.5-2.73,12.32-6,12.78-5.79.78.38,6,17,6,17l3.4-.69c10.39-2.13,41.12-8.43,41.54-8.86s7-12.13,11.23-11.35,12,2.58,12.39,3.74-8,1.93-8,1.93,8,1,8.64,3.1-7.87,2.58-7.87,2.58,8.13,1.55,8.52,3.1S579.28,373.13,579.28,373.13Z"/><path class="cls-11" d="M522.51,376.83c-6.85,10.47-15.72,6.57-20.3.53-3-3.92-3.66-7.71-1.91-11.08,5.5-2.73,12.32-6,12.78-5.79.78.38,6,17,6,17Z"/><path class="cls-10" d="M560.66,368.83l-40.79,8.53-.76.16s-6.67,5.42-7.85,4,2-4.77,2.29-5.13c-.42.28-4.93,3.37-6.53,1.77s3.32-5.13,3.86-5.51c-.55.21-5.36,2.11-6.7,1.26s3.87-6.07,3.1-5.68-5,1.55-5.81,0,9-6.8,11.56-6.58,12.7,6.58,12.7,6.58l18.7.32Z"/><path class="cls-11" d="M560.66,368.83l-40.79,8.53c7.19-3,16.86-6.29,24.56-8.81Z"/><path class="cls-14" d="M540.24,507c.33,12.5,0,24.29-.41,33.19l-1.08-12.13-4.6-66.35c1.55-12.58,12.19-20.32,12.19-20.32S539.57,480.88,540.24,507Z"/><rect class="cls-15" x="91.42" y="298.65" width="180.39" height="95.45" rx="7.03"/><rect class="cls-14" x="174.96" y="330.7" width="65.68" height="3.87" rx="1.94"/><rect class="cls-14" x="174.96" y="344.44" width="65.68" height="3.87" rx="1.94"/><rect class="cls-14" x="174.96" y="358.18" width="30.39" height="3.87" rx="1.94"/><path class="cls-6" d="M348.2,356.2v61.52c0,22-9.51,42.82-25.93,56.25-11.74,9.61-28.14,24.62-50.46,28-22.31-3.35-38.72-18.36-50.46-28-16.42-13.43-25.93-34.26-25.93-56.25V356.2a7.67,7.67,0,0,1,5.51-7.36l68.72-20.19a7.68,7.68,0,0,1,4.32,0l68.72,20.19A7.67,7.67,0,0,1,348.2,356.2Z"/><path class="cls-16" d="M271.81,480.58c-13.29-3.08-24.68-12.52-34-20.22l-3.21-2.65c-11.41-9.33-18.22-24.28-18.22-40V366.17l55.39-16.27,55.39,16.27v51.55c0,15.71-6.81,30.66-18.22,40-1,.84-2.11,1.73-3.22,2.65C296.48,468.07,285.1,477.5,271.81,480.58Z"/><path class="cls-17" d="M295.52,431l-21.36-34.4a2.76,2.76,0,0,0-4.69,0L248.1,431a2.76,2.76,0,0,0,2.35,4.22h42.73A2.76,2.76,0,0,0,295.52,431Z"/><line class="cls-17" x1="271.81" y1="409.1" x2="271.81" y2="417.49"/><line class="cls-17" x1="271.81" y1="425.04" x2="271.81" y2="426.29"/><path class="cls-18" d="M348.2,356.2v61.52c0,22-9.51,42.82-25.93,56.25-11.74,9.61-28.14,24.62-50.46,28V328.34a7.52,7.52,0,0,1,2.16.31l68.72,20.19A7.67,7.67,0,0,1,348.2,356.2Z"/><rect class="cls-19" x="415.43" y="234.43" width="33.29" height="67.1" rx="16.65"/><rect class="cls-20" x="399.81" y="267.1" width="64.52" height="59.79" rx="4.48"/><rect class="cls-2" x="429.23" y="287.81" width="5.68" height="18.38" rx="2.68"/><line class="cls-21" x1="340.38" y1="305.59" x2="340.38" y2="243.1"/><rect class="cls-15" x="259.43" y="197.04" width="140.39" height="33.29" rx="16.65"/><circle class="cls-15" cx="312.07" cy="182.33" r="29.81"/><circle class="cls-15" cx="357.01" cy="190.84" r="19.35"/><circle class="cls-6" cx="376.36" cy="230.33" r="22.93"/><polyline class="cls-22" points="368.84 230.96 373.44 235.55 383.89 225.1"/><path class="cls-23" d="M201.18,561.67c-12.13-15.23-19.36-43.62-18.58-50.07s20.9,28.87,20.9,26.56-7.69-52.85-2-60.74,16.75,36.25,16.75,34.44,2.32-53.38,9-55.08,6.46,76.76,6.46,76,11.09-25.42,15.22-23.55-.77,41.36-17.81,54.78"/><path class="cls-7" d="M242.77,553.61H190.7a4.27,4.27,0,0,0-4.17,5.2L197,606a4.27,4.27,0,0,0,4.17,3.34h31.11a4.26,4.26,0,0,0,4.17-3.34l10.48-47.2A4.27,4.27,0,0,0,242.77,553.61Z"/><g id="container"><g id="base_logo" data-name="base logo"><circle id="circle" class="cls-24" cx="136.19" cy="349.4" r="22.4"/><path id="toga" class="cls-25" d="M139.21,371.8a46,46,0,0,0,19.29-25.74.51.51,0,0,0-.13-.5c-5.61-5.54-6-3.08-18.18-6.58a.5.5,0,0,0-.56.75c5,7.3-5,18.33-.42,32.07"/><path id="shadow" class="cls-26" d="M139.21,371.8a46,46,0,0,0,19.37-26,23,23,0,0,1-19.37,26"/><path id="body" class="cls-4" d="M117.42,362.72c9.52-25,15.54-9,21.2-23.45a.5.5,0,0,1,.85-.12c5.67,7.19-4.68,18.24-.44,32.09a.5.5,0,0,1-.4.64,23,23,0,0,1-21.21-9.16"/><g id="black_outlines" data-name="black outlines"><path id="shoulders" class="cls-27" d="M117.42,362.72c8.78-23.3,14.83-10.89,20.19-21.19,1.27-2.42.57-3.09,4-2.1,10.9,2.71,12.11,1.38,17,6.34"/><circle id="circle-outline" class="cls-27" cx="136.19" cy="349.4" r="23"/><path id="toga_left" data-name="toga left" class="cls-27" d="M139.21,339.11c5.94,7.57-4.66,18.77,0,32.69"/><path id="toga_base" data-name="toga base" class="cls-27" d="M139.21,372.2a46,46,0,0,0,19.37-26.43"/><circle id="head" class="cls-28" cx="127.11" cy="330.64" r="10.29"/></g></g></g></g></g></svg>