<svg xmlns="http://www.w3.org/2000/svg" viewBox="0 0 1226.26 1000"><defs><style>.cls-1{fill:#e4eae9;}.cls-2{fill:#366a68;}.cls-3{fill:#468782;}.cls-4{fill:#529992;}.cls-16,.cls-17,.cls-22,.cls-27,.cls-5{fill:none;}.cls-22,.cls-5{stroke:#fff;}.cls-16,.cls-17,.cls-5{stroke-linecap:round;stroke-miterlimit:10;}.cls-5{stroke-width:2px;}.cls-6{fill:#2f2e3e;}.cls-7{fill:#5a5a77;}.cls-8{fill:#9dc4c0;}.cls-9{fill:#f4f4f4;}.cls-10{fill:#c7d8d7;}.cls-11{fill:#192d2c;}.cls-12{fill:#356a69;}.cls-13{fill:#275654;}.cls-14{fill:#ffc3ae;}.cls-15{fill:#f47f71;}.cls-16{stroke:#f47f71;}.cls-17{stroke:#192d2c;}.cls-18{fill:#2c4c4a;}.cls-19{fill:#daa520;}.cls-20{fill:#c98712;}.cls-21{fill:#60ada9;}.cls-22{stroke-width:6px;}.cls-23{fill:#4e8382;}.cls-24{fill:gray;}.cls-25{fill:#333;}.cls-26,.cls-28{fill:#fff;}.cls-27,.cls-28{stroke:#000;stroke-width:1.03px;}</style></defs><g id="Layer_2" data-name="Layer 2"><path class="cls-1" d="M897.63,284.42V673.84a15.87,15.87,0,0,1-15.87,15.87H321.18a15.88,15.88,0,0,1-15.87-15.87V284.42a15.87,15.87,0,0,1,15.87-15.87H881.76A15.86,15.86,0,0,1,897.63,284.42Z"/><path class="cls-2" d="M897.63,284.42v58.36H305.31V284.42a15.87,15.87,0,0,1,15.87-15.87H881.76A15.86,15.86,0,0,1,897.63,284.42Z"/><path class="cls-3" d="M619.18,295.64v27.1a3.87,3.87,0,0,1-3.87,3.87H411.7a3.87,3.87,0,0,1-3.87-3.87v-27.1a3.87,3.87,0,0,1,3.87-3.87H615.31A3.87,3.87,0,0,1,619.18,295.64Z"/><path class="cls-4" d="M619.18,295.64v27.1a3.87,3.87,0,0,1-3.87,3.87h-35.1V291.77h35.1A3.87,3.87,0,0,1,619.18,295.64Z"/><circle class="cls-5" cx="600.7" cy="308.18" r="4.81"/><line class="cls-5" x1="597.3" y1="311.58" x2="592.79" y2="316.09"/><path class="cls-6" d="M473.89,342.78V689.71H321.18a15.88,15.88,0,0,1-15.87-15.87V342.78Z"/><rect class="cls-7" x="365.09" y="388.68" width="73.94" height="6.09" rx="3.04"/><circle class="cls-7" cx="344.19" cy="391.72" r="4.02"/><rect class="cls-7" x="365.09" y="429.63" width="73.94" height="6.09" rx="3.04"/><circle class="cls-7" cx="344.19" cy="432.67" r="4.02"/><rect class="cls-7" x="365.09" y="470.58" width="73.94" height="6.09" rx="3.04"/><circle class="cls-7" cx="344.19" cy="473.62" r="4.02"/><rect class="cls-7" x="365.09" y="511.53" width="73.94" height="6.09" rx="3.04"/><circle class="cls-7" cx="344.19" cy="514.58" r="4.02"/><rect class="cls-7" x="365.09" y="552.49" width="73.94" height="6.09" rx="3.04"/><circle class="cls-7" cx="344.19" cy="555.53" r="4.02"/><rect class="cls-7" x="365.09" y="593.44" width="73.94" height="6.09" rx="3.04"/><circle class="cls-7" cx="344.19" cy="596.48" r="4.02"/><rect class="cls-8" x="498.15" y="366.61" width="110.97" height="8.39" rx="4.2"/><rect class="cls-9" x="498.15" y="403.03" width="113.55" height="45.26" rx="5.53"/><rect class="cls-1" x="527.11" y="422.91" width="55.63" height="5.5" rx="2.75"/><rect class="cls-9" x="620.28" y="403.03" width="113.55" height="45.26" rx="5.53"/><rect class="cls-1" x="649.24" y="422.91" width="55.63" height="5.5" rx="2.75"/><rect class="cls-9" x="742.41" y="403.03" width="113.55" height="45.26" rx="5.53"/><rect class="cls-1" x="771.37" y="422.91" width="55.63" height="5.5" rx="2.75"/><path class="cls-9" d="M856,465.57V652.21a8.06,8.06,0,0,1-8.07,8.06H506.21a8.06,8.06,0,0,1-8.06-8.06V465.57a8.06,8.06,0,0,1,8.06-8.06H847.89A8.06,8.06,0,0,1,856,465.57Z"/><path class="cls-8" d="M856,623.64v28.57a8.06,8.06,0,0,1-8.07,8.06H506.21a8.06,8.06,0,0,1-8.06-8.06V623.64Z"/><circle class="cls-1" cx="533.95" cy="492.28" r="4.94"/><rect class="cls-1" x="554" y="489.96" width="86.6" height="4.65" rx="2.32"/><rect class="cls-1" x="554" y="523.14" width="233.57" height="4.65" rx="2.32"/><rect class="cls-1" x="554" y="538.89" width="64.4" height="4.65" rx="2.32"/><rect class="cls-1" x="554" y="574.24" width="233.57" height="4.65" rx="2.32"/><rect class="cls-1" x="554" y="589.98" width="64.4" height="4.65" rx="2.32"/><rect class="cls-9" x="554.92" y="636.54" width="44.13" height="5.16" rx="2.58"/><path class="cls-10" d="M300.73,705.58H271.32l-6.77-78.79-5.23-60.95L237.63,705.58H209.76s3.1-80.9,5.81-142.07a378.67,378.67,0,0,1,12.49-81.29h63C297.63,528.28,300.73,705.58,300.73,705.58Z"/><path class="cls-11" d="M279.68,353.83c-3.36-13-27.33-14.45-40-4.77s-12.91,22.77-9.69,36.35-14.32,23.91-9.93,37.33,32.51,31,59.61,21.16,20.26-30.84,13.61-38.19-2.9-21.17-2.51-33.17S283.55,353.83,279.68,353.83Z"/><path class="cls-12" d="M272.86,406c10.45,2.45,17.16,3.36,24.13,11.74s16,28.65,16,28.65l-17.94,13-12.9-21.68"/><path class="cls-13" d="M288.52,423.5c10.08,13.43,8.24,27.27,14.92,31.14s-1,13.06-3.78,14.13-13.93,5.2-15.87,4.15-5.9-2.51-6-3.47"/><path class="cls-12" d="M293.1,453.89a19.47,19.47,0,0,1-1.27,4.14c-2.71,6-.78,24.19-.78,24.19h-63a40.59,40.59,0,0,0-3.59-21.09s-19.93-25-9.29-41.81,26.71-10.84,36.2-17.81l13.81,2.71c13.81,2.71,20.64,11.42,25.09,23.62C293.87,437.66,294.44,447.36,293.1,453.89Z"/><path class="cls-13" d="M291.83,458c-2.71,6-.78,24.19-.78,24.19h-63a40.59,40.59,0,0,0-3.59-21.09l13.26,7.74,6.72-16.59-9.9-24c.58.41,19.14,13.67,29.7,18.12,10.14,4.27,24.51,7,28.85,7.54A19.47,19.47,0,0,1,291.83,458Z"/><path class="cls-14" d="M255.77,410.52c5.11.41,7.93-2.55,8.21-4.86.07-.56.16-1.41.26-2.39.29-3.09.66-7.44.66-7.44l-16.28-6.14a22.92,22.92,0,0,1,.24,5.17c-.07,4-.38,8.95-.31,10.92C248.65,407.94,250.67,410.1,255.77,410.52Z"/><path class="cls-15" d="M248.86,394.86a20.55,20.55,0,0,0,15.38,8.41c.29-3.09.66-7.44.66-7.44l-16.28-6.14A22.92,22.92,0,0,1,248.86,394.86Z"/><path class="cls-14" d="M277.14,389.68c-1.73,5.05-5.44,10-11.88,10.23a18.67,18.67,0,0,1-12-3.7c-6.84-5-9.43-13.4-9.43-13.4-1,2.27-8.28,3-9.19-3.38s6.25-8.43,8.69-5.7,2.26,9.4,2.82,8.93,2.41-7.66,2.41-7.66c8.3.81,19-1.13,28.36-11.74,0,0,1.21,13.79,1.43,19A21,21,0,0,1,277.14,389.68Z"/><path class="cls-15" d="M277.14,389.68c-1.73,5.05-5.44,10-11.88,10.23a18.67,18.67,0,0,1-12-3.7c4.14-1.66,8.78.08,10.46,2.4C263.7,398.61,272.48,388.7,277.14,389.68Z"/><path class="cls-16" d="M239.74,382.31c2.56-1.7.5-5.84-2-5.43"/><path class="cls-16" d="M264.25,377.91l4.25,6.64a1.67,1.67,0,0,1-.56,2.34l-2.27,1.35"/><ellipse cx="256.72" cy="381.25" rx="1.32" ry="1.55" transform="translate(-35.39 26.39) rotate(-5.5)"/><ellipse cx="271.78" cy="380.45" rx="1.32" ry="1.55" transform="translate(-35.24 27.83) rotate(-5.5)"/><path class="cls-17" d="M258.34,375.72a4.91,4.91,0,0,0-5.85.83"/><path class="cls-17" d="M274.39,374.18a4.91,4.91,0,0,0-5.85.82"/><path class="cls-16" d="M262.44,392.2s-3,1.81-6.25-1.46"/><path class="cls-14" d="M319.82,467.9c-1.29,10.06-9,13.68-22.06,10.32-6.48-1.66-17.26-3.69-26.44-5.3s-16.91-2.82-16.91-2.82,2.45-16.39,3.22-16.39c.26,0,4.94.25,11,.59,11.84.64,29,1.6,29,1.6a36.37,36.37,0,0,1,5.19-4.22h0A49.26,49.26,0,0,1,313,446.35S321.11,457.83,319.82,467.9Z"/><path class="cls-15" d="M271.32,472.92c-9.26-1.62-16.91-2.82-16.91-2.82s2.45-16.39,3.22-16.39c.26,0,4.94.25,11,.59A105.65,105.65,0,0,1,271.32,472.92Z"/><path class="cls-14" d="M271.43,400.59c0,1.07,4.4,9,3.92,12s-5.58,5.23-5.58,5.23-6.06,56.75-9.39,62.3-12.48,10.31-19.85,4.25a29.44,29.44,0,0,1-4-4.06,65.06,65.06,0,0,1-8.49-14.12l15.33-13.91,1.06,1.31S260,413.42,260,411.64s-5.5-13.07-4.41-14.61,8.13,3.68,8.13,3.68,11.5-12,13-9.67S271.43,399.52,271.43,400.59Z"/><path class="cls-15" d="M236.55,480.31a65.06,65.06,0,0,1-8.49-14.12l15.33-13.91,1.06,1.31C237.26,467,236.49,476.47,236.55,480.31Z"/><path class="cls-15" d="M313,456.29l-15.36-.39a36.37,36.37,0,0,1,5.19-4.22h0A43.35,43.35,0,0,1,313,456.29Z"/><path class="cls-8" d="M282.54,519.77s-5.42,1.16-11.61,34.84c-4.17,22.64-5.79,53.68-6.38,72.18l-5.23-60.95s6.2-40.65,12-43.74A20.05,20.05,0,0,1,282.54,519.77Z"/><path class="cls-12" d="M330.54,730.74H270.92a1.74,1.74,0,0,1-1.74-1.87l.7-9.63,1-13.66h27.37l9.62,6.36,23.63,15.6A1.74,1.74,0,0,1,330.54,730.74Z"/><path class="cls-14" d="M246.25,730.74H210.67a2.47,2.47,0,0,1-2.47-2.66l.72-9.92.92-12.58h27.37l3,5.77,8.23,15.77A2.48,2.48,0,0,1,246.25,730.74Z"/><path class="cls-12" d="M246.25,730.74H210.67a2.47,2.47,0,0,1-2.47-2.66l.72-9.92h8.2l6.8-6.81h16.3l8.23,15.77A2.48,2.48,0,0,1,246.25,730.74Z"/><path class="cls-14" d="M307.87,711.94c-2.23,3.55-4,6.59-4,7.19,0,1.3-25.57.42-33.95.11l1-13.66h27.37Z"/><polygon class="cls-18" points="995.25 705.58 968.28 705.58 948.68 576.83 942.6 645.17 937.23 705.58 909.86 705.58 906.99 520.55 986.27 516.68 995.25 705.58"/><path class="cls-11" d="M948.68,576.83l-6.08,68.34c-1.51-14.23-3.42-26.18-3.68-40.37-.33-18.06-9.47-38.7-9.47-38.7Z"/><path class="cls-19" d="M999.71,439.05l-10.44,21.24-.22.45s-1,29.72-1.46,49c-.19,8.43-.27,14.88-.09,16,.58,3.68-78.58-1.55-79.59-3.09-.5-.77.66-16.25,2-31.59s2.74-30.74,2.74-30.74l-7.74,8.9-3.15-2.95-14.66-13.69s15.29-20.9,25.55-27.68,30.78-10.08,44.9-9.48S988.28,420.1,999.71,439.05Z"/><path class="cls-20" d="M914.15,437.32l-1.55,23-7.74,8.9-3.15-2.95a9.71,9.71,0,0,1,2.18-5C911.45,452.61,914.15,437.32,914.15,437.32Z"/><path class="cls-20" d="M989.27,460.29l-.22.45s-1,29.72-1.46,49a5.68,5.68,0,0,1-1.32-.15c-3.16-.69-74.64-16.56-75.8-17.72a7.48,7.48,0,0,1-.61-.81c1.31-15.44,2.74-30.74,2.74-30.74l14.13,7.55s15.74,2.13,28.3,0,19-7.51,22.51-17.57Z"/><path class="cls-11" d="M931.83,382.45c-7-1.94-9.87-15.29-7.55-18.1s6,2.13,6,2.13-2.8-9.78,1.55-12.29,5.5,6.77,11.41,7.35,17.2-2,23.12,1.45,4,12.49,4,12.49,4.35-.29,4.16,5.42-7.84,16.35-9.49,21-9.77,6.5-14.9,1.46"/><path class="cls-14" d="M953.55,422.76c-5.07.69-8-2.12-8.46-4.42-.09-.55-.23-1.39-.38-2.36-.46-3.08-1.06-7.4-1.06-7.4l15.94-7a23,23,0,0,0,0,5.18c.29,4,.86,8.92.89,10.89C960.53,419.81,958.62,422.08,953.55,422.76Z"/><path class="cls-15" d="M959.62,406.76A20.58,20.58,0,0,1,944.71,416c-.46-3.08-1.06-7.4-1.06-7.4l15.94-7A23,23,0,0,0,959.62,406.76Z"/><path class="cls-14" d="M960.11,382.88s1,11.63,1.55,12.11.39-6.21,2.83-8.93,9.62-.62,8.69,5.71-8.18,5.65-9.2,3.37c0,0-5.5,17.64-21.48,17.07-10.22-.36-13.27-12.44-13-17.66s1.46-19,1.46-19,2,5,8.92,5S957,373.78,960.11,382.88Z"/><path class="cls-16" d="M968.07,393.75c-2.65-1.56-.81-5.81,1.72-5.54"/><path class="cls-16" d="M943.35,390.65l-3.89,6.85a1.68,1.68,0,0,0,.69,2.31l2.34,1.23"/><ellipse cx="951.05" cy="393.58" rx="1.55" ry="1.32" transform="translate(516.92 1326.83) rotate(-87.53)"/><ellipse cx="935.97" cy="393.58" rx="1.55" ry="1.32" transform="translate(502.49 1311.76) rotate(-87.53)"/><path class="cls-17" d="M949.14,388.15a4.92,4.92,0,0,1,5.89.51"/><path class="cls-17" d="M933,387.46a4.9,4.9,0,0,1,5.88.51"/><path class="cls-16" d="M945.93,404.82s3.07,1.65,6.15-1.79"/><rect class="cls-10" x="864.92" y="470.4" width="147.98" height="63.07" rx="3.39" transform="translate(190.1 -254.89) rotate(17.18)"/><rect class="cls-8" x="887.38" y="484.75" width="112.67" height="2.84" rx="1.42" transform="translate(185.66 -257.01) rotate(17.18)"/><rect class="cls-8" x="884.14" y="495.24" width="112.67" height="2.84" rx="1.42" transform="translate(188.61 -255.58) rotate(17.18)"/><rect class="cls-8" x="880.89" y="505.74" width="112.67" height="2.84" rx="1.42" transform="translate(191.57 -254.15) rotate(17.18)"/><rect class="cls-8" x="878.86" y="508.2" width="58.18" height="2.84" rx="1.42" transform="translate(190.99 -245.4) rotate(17.18)"/><path class="cls-14" d="M991.88,475.26c-4.67,12.12-9.78,23.58-12.25,25.93-5.16,4.91-40.38,21.68-41.93,22.71s-6.33,11.74-13.62,12.13-19.29-9-15.42-10.45,12.65-6.32,12.65-6.32-9.29-.52-9.16-2.2S930,512,930,512s30.76-20.77,32.83-22.32c.91-.69,4.44-10.12,8.11-20.46C977,471,985.49,473.48,991.88,475.26Z"/><path class="cls-19" d="M1001.57,444.29c-.07,3.83-4.62,17.79-9.69,31-6.39-1.78-14.92-4.26-20.91-6,4.67-13.16,9.57-27.8,9.57-27.8C988.79,427.39,1001.7,436.93,1001.57,444.29Z"/><path class="cls-14" d="M867.4,468.57c2.4,6.31,12.39,11.71,13.55,9.88s-6.19-9.2-6.19-9.2,5.71,5.22,8.23,4.45-5.62-10-5.62-10,6.29,6.08,7.84,5.51-3.68-9.58-3.68-9.58,5.62,6.29,8.23,5.23-1.65-15.2-9.58-16.16S865,462.22,867.4,468.57Z"/><path class="cls-10" d="M909.86,705.58l-33.26,22a1.75,1.75,0,0,0,1,3.2h59.62a1.75,1.75,0,0,0,1.74-1.87l-1.7-23.29Z"/><path class="cls-10" d="M968.31,705.58l-11.24,21.53a2.48,2.48,0,0,0,2.2,3.63h35.58a2.48,2.48,0,0,0,2.47-2.66l-1.64-22.5Z"/><path class="cls-21" d="M435.7,683.77c-12.13-15.23-19.36-43.61-18.59-50.07S438,662.57,438,660.27s-7.69-52.86-2-60.75,16.75,36.25,16.75,34.44,2.32-53.38,9-55.07,6.45,76.75,6.45,76,11.1-25.43,15.23-23.56-.78,41.36-17.81,54.78"/><path class="cls-10" d="M477.29,675.71H425.22a4.27,4.27,0,0,0-4.17,5.2l10.48,47.2a4.26,4.26,0,0,0,4.17,3.34h31.11a4.28,4.28,0,0,0,4.17-3.34l10.47-47.2A4.26,4.26,0,0,0,477.29,675.71Z"/><path class="cls-22" d="M378.65,309.56a19.17,19.17,0,0,0-18.93-19.16,8.57,8.57,0,1,0-15.42,7.47,19.07,19.07,0,0,0-.45,22.77v0c.15.21.31.4.47.6a19,19,0,0,0,17.7,7.29h0A19.17,19.17,0,0,0,378.65,309.56Z"/><g id="container"><g id="base_logo" data-name="base logo"><circle id="circle" class="cls-23" cx="359.48" cy="309.6" r="18.97"/><path id="toga" class="cls-24" d="M362,328.57a39,39,0,0,0,16.33-21.8.43.43,0,0,0-.11-.43c-4.75-4.68-5.07-2.61-15.39-5.57a.42.42,0,0,0-.47.64c4.26,6.18-4.24,15.52-.36,27.16"/><path id="shadow" class="cls-25" d="M362,328.57a39,39,0,0,0,16.4-22,19.48,19.48,0,0,1-16.4,22"/><path id="body" class="cls-26" d="M343.59,320.88c8.06-21.17,13.15-7.65,18-19.86a.42.42,0,0,1,.72-.1c4.8,6.09-4,15.45-.37,27.17a.42.42,0,0,1-.35.54,19.45,19.45,0,0,1-18-7.75"/><g id="black_outlines" data-name="black outlines"><path id="shoulders" class="cls-27" d="M343.59,320.88c7.43-19.74,12.56-9.23,17.09-17.94,1.08-2.05.49-2.63,3.41-1.78,9.23,2.29,10.25,1.16,14.35,5.37"/><circle id="circle-outline" class="cls-27" cx="359.48" cy="309.6" r="19.48"/><path id="toga_left" data-name="toga left" class="cls-27" d="M362,300.89c5,6.4-4,15.89,0,27.68"/><path id="toga_base" data-name="toga base" class="cls-27" d="M362,328.9a38.92,38.92,0,0,0,16.4-22.37"/><circle id="head" class="cls-28" cx="351.79" cy="293.71" r="8.71"/></g></g></g></g></svg>